<svg xmlns="http://www.w3.org/2000/svg" version="1.1" xmlns:xlink="http://www.w3.org/1999/xlink" xmlns:svgjs="http://svgjs.dev/svgjs" width="1500" height="1500" viewBox="0 0 1500 1500"><rect width="1500" height="1500" fill="#ffffff"></rect><g transform="matrix(0.6666666666666666,0,0,0.6666666666666666,249.39393939393938,573.6490073984941)"><svg viewBox="0 0 396 140" data-background-color="#c53683" preserveAspectRatio="xMidYMid meet" height="530" width="1500" xmlns="http://www.w3.org/2000/svg" xmlns:xlink="http://www.w3.org/1999/xlink"><g id="tight-bounds" transform="matrix(1,0,0,1,0.2400000000000091,-0.1250784031768717)"><svg viewBox="0 0 395.52 140.25015680635371" height="140.25015680635371" width="395.52"><g><svg viewBox="0 0 395.52 140.25015680635371" height="140.25015680635371" width="395.52"><g transform="matrix(1,0,0,1,0,86.68022346356545)"><svg viewBox="0 0 395.52 53.569933342788254" height="53.569933342788254" width="395.52"><g><svg viewBox="0 0 395.52 53.569933342788254" height="53.569933342788254" width="395.52"><g><svg viewBox="0 0 395.52 53.569933342788254" height="53.569933342788254" width="395.52"><g transform="matrix(1,0,0,1,0,0)"><svg width="395.52" viewBox="2.45 -37.75 352.52000000000004 47.75" height="53.569933342788254" data-palette-color="#fbfafa"><path d="M2.45 0L2.45-2.7 6.1-2.7 6.1-32.2 2.45-32.2 2.45-34.9 15.7-34.9 15.7-32.2 12.05-32.2 12.05-2.7 15.7-2.7 15.7 0 2.45 0ZM20.35 0L20.35-2.7 23.75-2.7 23.75-22 20.35-22.65 20.35-24.85 29.2-26.6 29.2-21.95 29.45-21.95Q29.75-22.8 30.37-23.65 31-24.5 31.92-25.15 32.85-25.8 34.07-26.2 35.3-26.6 36.85-26.6L36.85-26.6Q41.6-26.6 43.6-24.18 45.6-21.75 45.6-16.9L45.6-16.9 45.6-2.7 49-2.7 49 0 36.7 0 36.7-2.7 40-2.7 40-16.6Q40-19.85 38.75-21.35 37.5-22.85 34.8-22.85L34.8-22.85Q33.8-22.85 32.82-22.58 31.85-22.3 31.07-21.73 30.3-21.15 29.82-20.3 29.35-19.45 29.35-18.25L29.35-18.25 29.35-2.7 32.65-2.7 32.65 0 20.35 0ZM60.75 0.4L60.75 0.4Q57.9 0.4 56.75-0.8 55.59-2 55.59-4.6L55.59-4.6 55.59-23.1 52.2-23.1 52.2-26 53.05-26Q54.9-26 55.59-26.65 56.3-27.3 56.75-28.55L56.75-28.55 58.3-32.95 61.2-32.95 61.2-26 67.45-26 67.45-23.1 61.2-23.1 61.2-2.85 67.45-2.85 67.45-0.65Q66.59-0.25 64.72 0.08 62.84 0.4 60.75 0.4ZM82.84 0.6L82.84 0.6Q79.94 0.6 77.69-0.38 75.44-1.35 73.89-3.15 72.34-4.95 71.52-7.45 70.69-9.95 70.69-13L70.69-13Q70.69-16.1 71.57-18.6 72.44-21.1 74.02-22.88 75.59-24.65 77.77-25.63 79.94-26.6 82.54-26.6L82.54-26.6Q85.19-26.6 87.29-25.73 89.39-24.85 90.87-23.25 92.34-21.65 93.14-19.4 93.94-17.15 93.94-14.4L93.94-14.4 93.94-13.05 76.74-13.05 76.74-11.45Q76.74-7.55 78.69-5.43 80.64-3.3 83.94-3.3L83.94-3.3Q86.84-3.3 88.62-4.58 90.39-5.85 91.24-7.75L91.24-7.75 93.39-6.45Q92.94-5.15 92.07-3.9 91.19-2.65 89.89-1.65 88.59-0.65 86.84-0.03 85.09 0.6 82.84 0.6ZM76.74-16.35L76.74-15.7 88.14-15.7 88.14-16.25Q88.14-19.85 86.77-21.83 85.39-23.8 82.54-23.8L82.54-23.8Q79.74-23.8 78.24-21.88 76.74-19.95 76.74-16.35L76.74-16.35ZM98.14 0L98.14-2.7 101.54-2.7 101.54-22 98.14-22.65 98.14-24.85 106.99-26.6 106.99-21.95 107.24-21.95Q107.59-22.85 108.11-23.68 108.64-24.5 109.41-25.15 110.19-25.8 111.22-26.2 112.24-26.6 113.54-26.6L113.54-26.6Q115.84-26.6 117.22-25.45 118.59-24.3 118.59-22.15L118.59-22.15Q118.59-20.45 117.72-19.48 116.84-18.5 115.34-18.5L115.34-18.5Q113.79-18.5 112.91-19.33 112.04-20.15 112.04-21.4L112.04-21.4Q112.04-22.25 112.39-22.83 112.74-23.4 113.24-23.5L113.24-23.5 113.24-23.65Q113.09-23.7 112.89-23.73 112.69-23.75 112.29-23.75L112.29-23.75Q111.34-23.75 110.41-23.25 109.49-22.75 108.77-21.98 108.04-21.2 107.59-20.23 107.14-19.25 107.14-18.3L107.14-18.3 107.14-2.7 111.54-2.7 111.54 0 98.14 0ZM132.19 0L123.39-23.3 120.89-23.3 120.89-26 132.74-26 132.74-23.3 129.44-23.3 135.59-5.45 135.84-5.45 141.99-23.3 138.69-23.3 138.69-26 147.84-26 147.84-23.3 145.34-23.3 136.54 0 132.19 0ZM156.49-30.85L156.49-30.85Q154.89-30.85 153.99-31.78 153.09-32.7 153.09-34.15L153.09-34.15 153.09-34.45Q153.09-35.9 153.99-36.83 154.89-37.75 156.49-37.75L156.49-37.75Q158.09-37.75 158.99-36.83 159.89-35.9 159.89-34.45L159.89-34.45 159.89-34.15Q159.89-32.7 158.99-31.78 158.09-30.85 156.49-30.85ZM150.28 0L150.28-2.7 153.69-2.7 153.69-22 150.28-22.65 150.28-24.85 159.28-26.6 159.28-2.7 162.69-2.7 162.69 0 150.28 0ZM178.48 0.6L178.48 0.6Q175.58 0.6 173.33-0.38 171.08-1.35 169.53-3.15 167.98-4.95 167.16-7.45 166.33-9.95 166.33-13L166.33-13Q166.33-16.1 167.21-18.6 168.08-21.1 169.66-22.88 171.23-24.65 173.41-25.63 175.58-26.6 178.18-26.6L178.18-26.6Q180.83-26.6 182.93-25.73 185.03-24.85 186.51-23.25 187.98-21.65 188.78-19.4 189.58-17.15 189.58-14.4L189.58-14.4 189.58-13.05 172.38-13.05 172.38-11.45Q172.38-7.55 174.33-5.43 176.28-3.3 179.58-3.3L179.58-3.3Q182.48-3.3 184.26-4.58 186.03-5.85 186.88-7.75L186.88-7.75 189.03-6.45Q188.58-5.15 187.71-3.9 186.83-2.65 185.53-1.65 184.23-0.65 182.48-0.03 180.73 0.6 178.48 0.6ZM172.38-16.35L172.38-15.7 183.78-15.7 183.78-16.25Q183.78-19.85 182.41-21.83 181.03-23.8 178.18-23.8L178.18-23.8Q175.38-23.8 173.88-21.88 172.38-19.95 172.38-16.35L172.38-16.35ZM201.03 0L194.43-23.3 191.93-23.3 191.93-26 203.43-26 203.43-23.3 200.08-23.3 204.63-5.5 204.88-5.5 210.63-26 215.23-26 220.98-5.5 221.23-5.5 225.78-23.3 222.43-23.3 222.43-26 231.38-26 231.38-23.3 228.88-23.3 222.28 0 217.58 0 211.78-19.45 211.53-19.45 205.73 0 201.03 0ZM246.13 0L246.13-2.7 249.78-2.7 249.78-32.2 246.13-32.2 246.13-34.9 263.73-34.9Q268.78-34.9 271.4-32.5 274.03-30.1 274.03-25.45L274.03-25.45Q274.03-20.75 271.28-18.2 268.53-15.65 263.48-15.65L263.48-15.65 255.73-15.65 255.73-2.7 260.48-2.7 260.48 0 246.13 0ZM255.73-31.95L255.73-18.6 262.38-18.6Q265.03-18.6 266.45-20.1 267.88-21.6 267.88-24.1L267.88-24.1 267.88-26.45Q267.88-28.95 266.45-30.45 265.03-31.95 262.38-31.95L262.38-31.95 255.73-31.95ZM277.87 0L277.87-2.7 281.27-2.7 281.27-22 277.87-22.65 277.87-24.85 286.72-26.6 286.72-21.95 286.97-21.95Q287.32-22.85 287.85-23.68 288.37-24.5 289.15-25.15 289.92-25.8 290.95-26.2 291.97-26.6 293.27-26.6L293.27-26.6Q295.57-26.6 296.95-25.45 298.32-24.3 298.32-22.15L298.32-22.15Q298.32-20.45 297.45-19.48 296.57-18.5 295.07-18.5L295.07-18.5Q293.52-18.5 292.65-19.33 291.77-20.15 291.77-21.4L291.77-21.4Q291.77-22.25 292.12-22.83 292.47-23.4 292.97-23.5L292.97-23.5 292.97-23.65Q292.82-23.7 292.62-23.73 292.42-23.75 292.02-23.75L292.02-23.75Q291.07-23.75 290.15-23.25 289.22-22.75 288.5-21.98 287.77-21.2 287.32-20.23 286.87-19.25 286.87-18.3L286.87-18.3 286.87-2.7 291.27-2.7 291.27 0 277.87 0ZM313.12 0.6L313.12 0.6Q310.22 0.6 307.97-0.38 305.72-1.35 304.17-3.15 302.62-4.95 301.8-7.45 300.97-9.95 300.97-13L300.97-13Q300.97-16.1 301.85-18.6 302.72-21.1 304.3-22.88 305.87-24.65 308.05-25.63 310.22-26.6 312.82-26.6L312.82-26.6Q315.47-26.6 317.57-25.73 319.67-24.85 321.14-23.25 322.62-21.65 323.42-19.4 324.22-17.15 324.22-14.4L324.22-14.4 324.22-13.05 307.02-13.05 307.02-11.45Q307.02-7.55 308.97-5.43 310.92-3.3 314.22-3.3L314.22-3.3Q317.12-3.3 318.89-4.58 320.67-5.85 321.52-7.75L321.52-7.75 323.67-6.45Q323.22-5.15 322.35-3.9 321.47-2.65 320.17-1.65 318.87-0.65 317.12-0.03 315.37 0.6 313.12 0.6ZM307.02-16.35L307.02-15.7 318.42-15.7 318.42-16.25Q318.42-19.85 317.05-21.83 315.67-23.8 312.82-23.8L312.82-23.8Q310.02-23.8 308.52-21.88 307.02-19.95 307.02-16.35L307.02-16.35ZM327.92 10L327.92 7.3 331.32 7.3 331.32-22 327.92-22.65 327.92-24.85 336.92-26.6 336.92-22.1 337.17-22.1Q337.97-23.9 339.77-25.25 341.57-26.6 344.47-26.6L344.47-26.6Q346.87-26.6 348.82-25.68 350.77-24.75 352.12-23 353.47-21.25 354.22-18.73 354.97-16.2 354.97-13L354.97-13Q354.97-9.8 354.22-7.28 353.47-4.75 352.12-3 350.77-1.25 348.82-0.33 346.87 0.6 344.47 0.6L344.47 0.6Q341.52 0.6 339.74-0.75 337.97-2.1 337.17-3.9L337.17-3.9 336.92-3.9 336.92 7.3 341.32 7.3 341.32 10 327.92 10ZM342.72-3L342.72-3Q345.57-3 347.27-4.95 348.97-6.9 348.97-10.35L348.97-10.35 348.97-15.65Q348.97-19.1 347.27-21.05 345.57-23 342.72-23L342.72-23Q341.57-23 340.54-22.68 339.52-22.35 338.69-21.7 337.87-21.05 337.39-20.15 336.92-19.25 336.92-18.1L336.92-18.1 336.92-7.9Q336.92-6.75 337.39-5.85 337.87-4.95 338.69-4.3 339.52-3.65 340.54-3.33 341.57-3 342.72-3Z" opacity="1" transform="matrix(1,0,0,1,0,0)" fill="#000000" class="undefined-text-0" data-fill-palette-color="primary" id="text-0"></path></svg></g></svg></g></svg></g></svg></g><g transform="matrix(1,0,0,1,141.140547001877,0)"><svg viewBox="0 0 113.238905996246 74.03364787973338" height="74.03364787973338" width="113.238905996246"><g><svg xmlns="http://www.w3.org/2000/svg" xmlns:xlink="http://www.w3.org/1999/xlink" version="1.1" x="0" y="0" viewBox="0.26380660441860176 20.599999999999998 99.57435560018719 65.10000000000001" enable-background="new 0 0 100 86.1" xml:space="preserve" height="74.03364787973338" width="113.238905996246" class="icon-icon-0" data-fill-palette-color="accent" id="icon-0"><g fill="#eeecee" data-fill-palette-color="accent"><circle cx="84.6" cy="29.5" r="5.8" fill="#000000" data-fill-palette-color="accent"></circle><circle cx="26.3" cy="26.4" r="5.8" fill="#000000" data-fill-palette-color="accent"></circle><g fill="#eeecee" data-fill-palette-color="accent"><path d="M49.6 34.1c-0.5 1.1-0.1 2.3 1 3 1 0.6 2.3 0.3 3-0.6L49.6 34.1z" fill="#000000" data-fill-palette-color="accent"></path><polygon points="57.1,31.3 58.8,26.8 55.6,25 52.5,28.7 46.4,30.9 57.9,37.6   " fill="#000000" data-fill-palette-color="accent"></polygon></g><path d="M96.4 40.2c-2.2-0.3-4.2 1.3-4.5 3.5l-2.6 18.7h-0.4v0V42.4c0-2.3-1.9-4.2-4.2-4.2-2.3 0-4.2 1.9-4.2 4.2v16l-10.3 0.7c-2.2 0.1-3.9 1.9-3.9 4.1l-0.2 17.4c0 0 0 0 0 0h-3.7V56.8h3.9v-5.9h-6.5l9.2-9.2c0.3-0.3 0.3-0.8 0-1.1l-9.8-9.8c-0.3-0.3-0.8-0.3-1.1 0-0.3 0.3-0.3 0.8 0 1.1l9.3 9.3-9.8 9.8H29.9v5.9h3.9v23.8h-2.9c0-0.1 0-0.3-0.1-0.4l-3.2-17.6c-0.3-1.8-1.8-3.2-3.6-3.4l-3.9-0.4L24.3 43l3.1 4.5c0.6 0.8 1.5 1.3 2.5 1.3 0 0 0 0 0 0l9.5 0c1.6 0 3-1.3 3-3 0-1.6-1.3-3-3-3 0 0 0 0 0 0l-7.9 0-5.8-8.7c-0.2-0.3-0.3-0.6-0.6-0.8l0 0c-0.6-0.8-1.4-1.3-2.4-1.3-2.1-0.4-4.2 0.9-4.7 3l-7.1 26.1c0 0.1-0.1 0.3-0.1 0.4l-2.5-18c-0.3-2.2-2.3-3.8-4.5-3.5s-3.8 2.3-3.5 4.5l3.1 22.1c0.1 0.9 0.5 1.6 1.1 2.2 0.7 0.8 1.8 1.4 3 1.4h5.7v10.2H5.4l0 5.3h88.9l0-5.3h-7.7V70.4h5.2c0.3 0 0.6 0 0.9-0.1 2 0 3.7-1.5 4-3.5l3.1-22.1C100.1 42.5 98.6 40.4 96.4 40.2zM17.2 70.4h3.4l1.8 10.2h-5.3V70.4zM74.4 80.6l0.1-10.2c0.1 0 0.2 0 0.4 0h7.6v10.2H74.4z" fill="#000000" data-fill-palette-color="accent"></path></g></svg></g></svg></g><g></g></svg></g><defs></defs></svg><rect width="395.52" height="140.25015680635371" fill="none" stroke="none" visibility="hidden"></rect></g></svg></g></svg>